{
  "asset": {
    "version": "2.0",
    "generator": "THREE.GLTFExporter"
  },
  "scenes": [
    {
      "name": "Scene",
      "nodes": [
        6
      ]
    }
  ],
  "scene": 0,
  "nodes": [
    {
      "rotation": [
        -6.938893903907228e-18,
        -1.3877787807814457e-17,
        9.62964972193618e-35,
        -1
      ],
      "translation": [
        0.9925770163536072,
        -20.3798770904541,
        0
      ],
      "name": "Cap_1",
      "extras": {
        "name": "Cap 1"
      },
      "mesh": 1
    },
    {
      "rotation": [
        -6.938893903907228e-18,
        -1.3877787807814457e-17,
        9.62964972193618e-35,
        -1
      ],
      "translation": [
        0.9925770163536072,
        -20.3798770904541,
        0
      ],
      "name": "Cap_2",
      "extras": {
        "name": "Cap 2"
      },
      "mesh": 2
    },
    {
      "rotation": [
        0,
        0,
        0,
        -1
      ],
      "translation": [
        0,
        0,
        23.096797943115234
      ],
      "name": "Extrude",
      "extras": {
        "name": "Extrude"
      },
      "mesh": 0,
      "children": [
        0,
        1
      ]
    },
    {
      "rotation": [
        -0.05888878181576729,
        -0.06897766888141632,
        -0.1284393072128296,
        0.9875614047050476
      ],
      "name": "Sphere",
      "extras": {
        "name": "Sphere"
      },
      "children": [
        2
      ]
    },
    {
      "rotation": [
        0.38842688722287344,
        -0.595071953773858,
        0.28712973248705165,
        -0.6423164608535034
      ],
      "name": "Torus",
      "extras": {
        "name": "Torus"
      },
      "mesh": 3
    },
    {
      "rotation": [
        -0.3950432116513896,
        -0.6050909779433371,
        -0.6664817519528459,
        -0.18332444257341607
      ],
      "translation": [
        -6.64642858505249,
        -10.575723648071289,
        8.525065422058105
      ],
      "name": "Cloner",
      "extras": {
        "name": "Cloner"
      },
      "mesh": 4
    },
    {
      "scale": [
        0.009,
        0.009,
        0.009
      ],
      "name": "5ою.gltf",
      "children": [
        3,
        4,
        5
      ]
    }
  ],
  "bufferViews": [
    {
      "buffer": 0,
      "byteOffset": 0,
      "byteLength": 11376,
      "target": 34962,
      "byteStride": 12
    },
    {
      "buffer": 0,
      "byteOffset": 11376,
      "byteLength": 11376,
      "target": 34962,
      "byteStride": 12
    },
    {
      "buffer": 0,
      "byteOffset": 22752,
      "byteLength": 7584,
      "target": 34962,
      "byteStride": 8
    },
    {
      "buffer": 0,
      "byteOffset": 30336,
      "byteLength": 5352,
      "target": 34963
    },
    {
      "buffer": 0,
      "byteOffset": 35688,
      "byteLength": 5352,
      "target": 34962,
      "byteStride": 12
    },
    {
      "buffer": 0,
      "byteOffset": 41040,
      "byteLength": 5352,
      "target": 34962,
      "byteStride": 12
    },
    {
      "buffer": 0,
      "byteOffset": 46392,
      "byteLength": 3568,
      "target": 34962,
      "byteStride": 8
    },
    {
      "buffer": 0,
      "byteOffset": 49960,
      "byteLength": 2664,
      "target": 34963
    },
    {
      "buffer": 0,
      "byteOffset": 52624,
      "byteLength": 5352,
      "target": 34962,
      "byteStride": 12
    },
    {
      "buffer": 0,
      "byteOffset": 57976,
      "byteLength": 5352,
      "target": 34962,
      "byteStride": 12
    },
    {
      "buffer": 0,
      "byteOffset": 63328,
      "byteLength": 3568,
      "target": 34962,
      "byteStride": 8
    },
    {
      "buffer": 0,
      "byteOffset": 66896,
      "byteLength": 2664,
      "target": 34963
    },
    {
      "buffer": 0,
      "byteOffset": 69560,
      "byteLength": 8436,
      "target": 34962,
      "byteStride": 12
    },
    {
      "buffer": 0,
      "byteOffset": 77996,
      "byteLength": 8436,
      "target": 34962,
      "byteStride": 12
    },
    {
      "buffer": 0,
      "byteOffset": 86432,
      "byteLength": 5624,
      "target": 34962,
      "byteStride": 8
    },
    {
      "buffer": 0,
      "byteOffset": 92056,
      "byteLength": 7776,
      "target": 34963
    },
    {
      "buffer": 0,
      "byteOffset": 99832,
      "byteLength": 353280,
      "target": 34962,
      "byteStride": 12
    },
    {
      "buffer": 0,
      "byteOffset": 453112,
      "byteLength": 353280,
      "target": 34962,
      "byteStride": 12
    },
    {
      "buffer": 0,
      "byteOffset": 806392,
      "byteLength": 235520,
      "target": 34962,
      "byteStride": 8
    },
    {
      "buffer": 0,
      "byteOffset": 1041912,
      "byteLength": 170880,
      "target": 34963
    },
    {
      "buffer": 0,
      "byteOffset": 1212792,
      "byteLength": 16
    },
    {
      "buffer": 0,
      "byteOffset": 1212808,
      "byteLength": 48
    },
    {
      "buffer": 0,
      "byteOffset": 1212856,
      "byteLength": 16
    },
    {
      "buffer": 0,
      "byteOffset": 1212872,
      "byteLength": 64
    },
    {
      "buffer": 0,
      "byteOffset": 1212936,
      "byteLength": 16
    },
    {
      "buffer": 0,
      "byteOffset": 1212952,
      "byteLength": 48
    },
    {
      "buffer": 0,
      "byteOffset": 1213000,
      "byteLength": 12
    },
    {
      "buffer": 0,
      "byteOffset": 1213012,
      "byteLength": 36
    },
    {
      "buffer": 0,
      "byteOffset": 1213048,
      "byteLength": 20
    },
    {
      "buffer": 0,
      "byteOffset": 1213068,
      "byteLength": 80
    },
    {
      "buffer": 0,
      "byteOffset": 1213148,
      "byteLength": 12
    },
    {
      "buffer": 0,
      "byteOffset": 1213160,
      "byteLength": 36
    },
    {
      "buffer": 0,
      "byteOffset": 1213196,
      "byteLength": 20
    },
    {
      "buffer": 0,
      "byteOffset": 1213216,
      "byteLength": 60
    },
    {
      "buffer": 0,
      "byteOffset": 1213276,
      "byteLength": 28
    },
    {
      "buffer": 0,
      "byteOffset": 1213304,
      "byteLength": 112
    },
    {
      "buffer": 0,
      "byteOffset": 1213416,
      "byteLength": 20
    },
    {
      "buffer": 0,
      "byteOffset": 1213436,
      "byteLength": 60
    }
  ],
  "buffers": [
    {
      "byteLength": 1213496,
      "uri": "data:application/octet-stream;base64,"
    }
  ],
  "accessors": [
    {
      "bufferView": 0,
      "componentType": 5126,
      "count": 948,
      "max": [
        135.5730743408203,
        73.1626205444336,
        -8.906089807422714e-16
      ],
      "min": [
        -133.58792114257812,
        -113.92237854003906,
        -40
      ],
      "type": "VEC3"
    },
    {
      "bufferView": 1,
      "componentType": 5126,
      "count": 948,
      "max": [
        1,
        0.9999712109565735,
        0
      ],
      "min": [
        -1,
        -0.9999868273735046,
        0
      ],
      "type": "VEC3"
    },
    {
      "bufferView": 2,
      "componentType": 5126,
      "count": 948,
      "max": [
        1,
        1
      ],
      "min": [
        0,
        0
      ],
      "type": "VEC2"
    },
    {
      "bufferView": 3,
      "componentType": 5123,
      "count": 2676,
      "max": [
        947
      ],
      "min": [
        0
      ],
      "type": "SCALAR"
    },
    {
      "bufferView": 4,
      "componentType": 5126,
      "count": 446,
      "max": [
        134.58050537109375,
        93.5425033569336,
        6.2148183768587304e-15
      ],
      "min": [
        -134.58050537109375,
        -93.5425033569336,
        -2.6114665273725256e-15
      ],
      "type": "VEC3"
    },
    {
      "bufferView": 5,
      "componentType": 5126,
      "count": 446,
      "max": [
        2.775586347448208e-17,
        2.7755932957653536e-17,
        1
      ],
      "min": [
        2.7755406870783953e-17,
        2.7755016441534828e-17,
        1
      ],
      "type": "VEC3"
    },
    {
      "bufferView": 6,
      "componentType": 5126,
      "count": 446,
      "max": [
        1,
        1
      ],
      "min": [
        0,
        0
      ],
      "type": "VEC2"
    },
    {
      "bufferView": 7,
      "componentType": 5123,
      "count": 1332,
      "max": [
        445
      ],
      "min": [
        0
      ],
      "type": "SCALAR"
    },
    {
      "bufferView": 8,
      "componentType": 5126,
      "count": 446,
      "max": [
        134.58050537109375,
        93.5425033569336,
        -40
      ],
      "min": [
        -134.58050537109375,
        -93.5425033569336,
        -40
      ],
      "type": "VEC3"
    },
    {
      "bufferView": 9,
      "componentType": 5126,
      "count": 446,
      "max": [
        0,
        0,
        -1
      ],
      "min": [
        0,
        0,
        -1
      ],
      "type": "VEC3"
    },
    {
      "bufferView": 10,
      "componentType": 5126,
      "count": 446,
      "max": [
        1,
        0.981147289276123
      ],
      "min": [
        0,
        0
      ],
      "type": "VEC2"
    },
    {
      "bufferView": 11,
      "componentType": 5123,
      "count": 1332,
      "max": [
        445
      ],
      "min": [
        0
      ],
      "type": "SCALAR"
    },
    {
      "bufferView": 12,
      "componentType": 5126,
      "count": 703,
      "max": [
        326.6942138671875,
        2.9157164096832275,
        326.6942138671875
      ],
      "min": [
        -326.6942138671875,
        -2.9157164096832275,
        -326.6942138671875
      ],
      "type": "VEC3"
    },
    {
      "bufferView": 13,
      "componentType": 5126,
      "count": 703,
      "max": [
        1,
        0.9848025441169739,
        1
      ],
      "min": [
        -1,
        -0.9848025441169739,
        -1
      ],
      "type": "VEC3"
    },
    {
      "bufferView": 14,
      "componentType": 5126,
      "count": 703,
      "max": [
        1,
        1
      ],
      "min": [
        0,
        0
      ],
      "type": "VEC2"
    },
    {
      "bufferView": 15,
      "componentType": 5123,
      "count": 3888,
      "max": [
        702
      ],
      "min": [
        0
      ],
      "type": "SCALAR"
    },
    {
      "bufferView": 16,
      "componentType": 5126,
      "count": 29440,
      "max": [
        527.2003784179688,
        255.89813232421875,
        528.544677734375
      ],
      "min": [
        -503.6935729980469,
        -208.6654510498047,
        -550.7479248046875
      ],
      "type": "VEC3"
    },
    {
      "bufferView": 17,
      "componentType": 5126,
      "count": 29440,
      "max": [
        0.933477520942688,
        0.9157954454421997,
        0.9834946393966675
      ],
      "min": [
        -0.9334776401519775,
        -0.9158070087432861,
        -0.9834945797920227
      ],
      "type": "VEC3"
    },
    {
      "bufferView": 18,
      "componentType": 5126,
      "count": 29440,
      "max": [
        1,
        1
      ],
      "min": [
        0,
        0
      ],
      "type": "VEC2"
    },
    {
      "bufferView": 19,
      "componentType": 5123,
      "count": 85440,
      "max": [
        29439
      ],
      "min": [
        0
      ],
      "type": "SCALAR"
    },
    {
      "bufferView": 20,
      "componentType": 5126,
      "count": 4,
      "max": [
        5
      ],
      "min": [
        0
      ],
      "type": "SCALAR"
    },
    {
      "bufferView": 21,
      "componentType": 5126,
      "count": 4,
      "max": [
        0,
        0,
        0
      ],
      "min": [
        0,
        0,
        0
      ],
      "type": "VEC3"
    },
    {
      "bufferView": 22,
      "componentType": 5126,
      "count": 4,
      "max": [
        5
      ],
      "min": [
        0
      ],
      "type": "SCALAR"
    },
    {
      "bufferView": 23,
      "componentType": 5126,
      "count": 4,
      "max": [
        0.38354989886283875,
        -0.020898334681987762,
        0.33549872040748596,
        -0.26299577951431274
      ],
      "min": [
        -0.08473916351795197,
        -0.9001426696777344,
        0.11488433927297592,
        -0.9851275682449341
      ],
      "type": "VEC4"
    },
    {
      "bufferView": 24,
      "componentType": 5126,
      "count": 4,
      "max": [
        5
      ],
      "min": [
        0
      ],
      "type": "SCALAR"
    },
    {
      "bufferView": 25,
      "componentType": 5126,
      "count": 4,
      "max": [
        1,
        1,
        1
      ],
      "min": [
        1,
        1,
        1
      ],
      "type": "VEC3"
    },
    {
      "bufferView": 26,
      "componentType": 5126,
      "count": 3,
      "max": [
        5
      ],
      "min": [
        0
      ],
      "type": "SCALAR"
    },
    {
      "bufferView": 27,
      "componentType": 5126,
      "count": 3,
      "max": [
        -6.64642858505249,
        -10.575723648071289,
        8.525065422058105
      ],
      "min": [
        -6.64642858505249,
        -10.575723648071289,
        8.525065422058105
      ],
      "type": "VEC3"
    },
    {
      "bufferView": 28,
      "componentType": 5126,
      "count": 5,
      "max": [
        5
      ],
      "min": [
        0
      ],
      "type": "SCALAR"
    },
    {
      "bufferView": 29,
      "componentType": 5126,
      "count": 5,
      "max": [
        0.7147083282470703,
        -0.05259314924478531,
        0.0791868194937706,
        0.6929324865341187
      ],
      "min": [
        -0.5734264850616455,
        -0.6651527881622314,
        -0.6254444718360901,
        -0.6221795082092285
      ],
      "type": "VEC4"
    },
    {
      "bufferView": 30,
      "componentType": 5126,
      "count": 3,
      "max": [
        5
      ],
      "min": [
        0
      ],
      "type": "SCALAR"
    },
    {
      "bufferView": 31,
      "componentType": 5126,
      "count": 3,
      "max": [
        1,
        1,
        1
      ],
      "min": [
        1,
        1,
        1
      ],
      "type": "VEC3"
    },
    {
      "bufferView": 32,
      "componentType": 5126,
      "count": 5,
      "max": [
        5
      ],
      "min": [
        0
      ],
      "type": "SCALAR"
    },
    {
      "bufferView": 33,
      "componentType": 5126,
      "count": 5,
      "max": [
        2.220446049250313e-16,
        2.220446049250313e-15,
        23.096797943115234
      ],
      "min": [
        0,
        -8.881784197001252e-16,
        23.096797943115234
      ],
      "type": "VEC3"
    },
    {
      "bufferView": 34,
      "componentType": 5126,
      "count": 7,
      "max": [
        5
      ],
      "min": [
        0
      ],
      "type": "SCALAR"
    },
    {
      "bufferView": 35,
      "componentType": 5126,
      "count": 7,
      "max": [
        0,
        0,
        0,
        1
      ],
      "min": [
        0,
        -1,
        0,
        -1
      ],
      "type": "VEC4"
    },
    {
      "bufferView": 36,
      "componentType": 5126,
      "count": 5,
      "max": [
        5
      ],
      "min": [
        0
      ],
      "type": "SCALAR"
    },
    {
      "bufferView": 37,
      "componentType": 5126,
      "count": 5,
      "max": [
        1,
        1,
        1
      ],
      "min": [
        1,
        1,
        1
      ],
      "type": "VEC3"
    }
  ],
  "materials": [
    {
      "pbrMetallicRoughness": {
        "baseColorFactor": [
          0.8,
          0.8,
          0.8,
          1
        ],
        "metallicFactor": 1,
        "roughnessFactor": 0.3,
        "baseColorTexture": {
          "index": 0
        }
      },
      "normalTexture": {
        "index": 1,
        "scale": 1
      },
      "name": "PBR"
    }
  ],
  "textures": [
    {
      "sampler": 0,
      "source": 0
    },
    {
      "sampler": 1,
      "source": 1
    }
  ],
  "samplers": [
    {
      "magFilter": 9729,
      "minFilter": 9729,
      "wrapS": 10497,
      "wrapT": 10497
    },
    {
      "magFilter": 9729,
      "minFilter": 9729,
      "wrapS": 10497,
      "wrapT": 10497
    }
  ],
  "images": [
    {
      "mimeType": "image/png",
      "uri": "data:image/png;base64,"
    },
    {
      "mimeType": "image/png",
      "uri": "data:image/png;base64,"
    }
  ],
  "meshes": [
    {
      "primitives": [
        {
          "mode": 4,
          "attributes": {
            "POSITION": 0,
            "NORMAL": 1,
            "TEXCOORD_0": 2
          },
          "indices": 3,
          "material": 0
        }
      ]
    },
    {
      "primitives": [
        {
          "mode": 4,
          "attributes": {
            "POSITION": 4,
            "NORMAL": 5,
            "TEXCOORD_0": 6
          },
          "indices": 7,
          "material": 0
        }
      ]
    },
    {
      "primitives": [
        {
          "mode": 4,
          "attributes": {
            "POSITION": 8,
            "NORMAL": 9,
            "TEXCOORD_0": 10
          },
          "indices": 11,
          "material": 0
        }
      ]
    },
    {
      "primitives": [
        {
          "mode": 4,
          "attributes": {
            "POSITION": 12,
            "NORMAL": 13,
            "TEXCOORD_0": 14
          },
          "indices": 15,
          "material": 0
        }
      ]
    },
    {
      "primitives": [
        {
          "mode": 4,
          "attributes": {
            "POSITION": 16,
            "NORMAL": 17,
            "TEXCOORD_0": 18
          },
          "indices": 19,
          "material": 0
        }
      ]
    }
  ],
  "animations": [
    {
      "name": "animation_0",
      "samplers": [
        {
          "input": 20,
          "output": 21,
          "interpolation": "LINEAR"
        },
        {
          "input": 22,
          "output": 23,
          "interpolation": "LINEAR"
        },
        {
          "input": 24,
          "output": 25,
          "interpolation": "LINEAR"
        },
        {
          "input": 26,
          "output": 27,
          "interpolation": "LINEAR"
        },
        {
          "input": 28,
          "output": 29,
          "interpolation": "LINEAR"
        },
        {
          "input": 30,
          "output": 31,
          "interpolation": "LINEAR"
        },
        {
          "input": 32,
          "output": 33,
          "interpolation": "LINEAR"
        },
        {
          "input": 34,
          "output": 35,
          "interpolation": "LINEAR"
        },
        {
          "input": 36,
          "output": 37,
          "interpolation": "LINEAR"
        }
      ],
      "channels": [
        {
          "sampler": 0,
          "target": {
            "node": 4,
            "path": "translation"
          }
        },
        {
          "sampler": 1,
          "target": {
            "node": 4,
            "path": "rotation"
          }
        },
        {
          "sampler": 2,
          "target": {
            "node": 4,
            "path": "scale"
          }
        },
        {
          "sampler": 3,
          "target": {
            "node": 5,
            "path": "translation"
          }
        },
        {
          "sampler": 4,
          "target": {
            "node": 5,
            "path": "rotation"
          }
        },
        {
          "sampler": 5,
          "target": {
            "node": 5,
            "path": "scale"
          }
        },
        {
          "sampler": 6,
          "target": {
            "node": 2,
            "path": "translation"
          }
        },
        {
          "sampler": 7,
          "target": {
            "node": 2,
            "path": "rotation"
          }
        },
        {
          "sampler": 8,
          "target": {
            "node": 2,
            "path": "scale"
          }
        }
      ]
    }
  ]
}